<svg data-v-33366646="" version="1.0" xmlns="http://www.w3.org/2000/svg" xmlns:xlink="http://www.w3.org/1999/xlink"
     width="100%" height="100%" viewBox="0 0 200.000000 70.000000" preserveAspectRatio="xMidYMid meet"
     color-interpolation-filters="sRGB" class="el-tooltip" style="margin: auto;">
    <rect data-v-33366646="" x="0" y="0" width="100%" height="100%" fill="#fff" fill-opacity="0"
          class="background"></rect>
    <rect data-v-33366646="" x="0" y="0" width="100%" height="100%" fill="url(#watermark)" fill-opacity="1"
          class="watermarklayer"></rect>
    <g data-v-33366646="" fill="#0088fa" class="icon-text-wrapper icon-svg-group iconsvg"
       transform="translate(10, 5)">
        <g class="iconsvg-imagesvg" transform="translate(0,0)">
            <rect fill="#0088fa" fill-opacity="0" stroke-width="2" x="0" y="0" width="60" height="60.7547923322685"
                  class="image-rect"></rect>
            <svg x="0" y="0" width="60" height="60.7547923322685" filtersec="colorsb1414199266" class="image-svg-svg">
                <svg xmlns="http://www.w3.org/2000/svg" viewBox="0 0 100.16 101.42">
                    <defs>
                        <linearGradient id="a6230f12c-51ad-4222-a262-5548eb9c0716" x1="85.6" y1="83.03" x2="28.38"
                                        y2="19.83" gradientUnits="userSpaceOnUse">
                            <stop offset="0" stop-color="#0035d4"></stop>
                            <stop offset="1" stop-color="#0086ff"></stop>
                        </linearGradient>
                        <linearGradient id="b96899fa7-1f88-4c71-ad8a-c0dd973f0219" x1="50.48" y1="9.61" x2="61.59"
                                        y2="92.36" gradientUnits="userSpaceOnUse">
                            <stop offset="0" stop-color="#a90908"></stop>
                            <stop offset=".52" stop-color="#eb0977"></stop>
                            <stop offset="1" stop-color="#8d003a"></stop>
                        </linearGradient>
                        <linearGradient id="c3f9e6219-5535-44a5-9d18-dbe33f3e4e29" x1="89.79" y1="10.89" x2="55.71"
                                        y2="34.02" gradientUnits="userSpaceOnUse">
                            <stop offset="0" stop-color="#ffcf1e"></stop>
                            <stop offset=".99" stop-color="#ff9000"></stop>
                        </linearGradient>
                        <linearGradient id="d72d3e64f-9e63-4ef8-a877-76265baa6fbf" x1="98.9" y1="24.31" x2="64.81"
                                        y2="47.43" gradientUnits="userSpaceOnUse">
                            <stop offset="0" stop-color="#ffcf1e"></stop>
                            <stop offset=".99" stop-color="#ff9000"></stop>
                        </linearGradient>
                        <linearGradient id="e1f9c7941-33a2-4890-ba69-b873959fd9c8" x1=".95" y1="52.43" x2="99.82"
                                        y2="52.43" gradientUnits="userSpaceOnUse">
                            <stop offset="0" stop-color="#ffcf1e"></stop>
                            <stop offset="1" stop-color="#ffff1e"></stop>
                        </linearGradient>
                        <linearGradient id="f85118488-5d18-4cb3-9cb5-c73a69faf8dc" x1="54.93" y1="480.58" x2="153.8"
                                        y2="480.58" gradientTransform="rotate(65.66 407.613 220.537)"
                                        gradientUnits="userSpaceOnUse">
                            <stop offset="0" stop-color="#00e8fe"></stop>
                            <stop offset="1" stop-color="#0088fa"></stop>
                        </linearGradient>
                        <linearGradient id="g6f36db62-e771-4696-a98d-0944119347ab" x1="34.2" y1="105" x2="43.91"
                                        y2="-5.46" gradientUnits="userSpaceOnUse">
                            <stop offset="0" stop-color="#ff0981"></stop>
                            <stop offset="1" stop-color="#ff62a7"></stop>
                        </linearGradient>
                    </defs>
                    <g>
                        <g>
                            <path d="M60.78 10.43C43 1.72 26.61 1.91 18.24 9.61a50.87 50.87 0 0 0-13.4 20.25 53.39 53.39 0 0 0-2.44 9.89C2.25 41.2 2.1 43 2 44.66c0-.35.06-.7.11-1 2.21-15.49 21.36-19.53 42.78-9s37 31.56 34.79 47.05c-1 7.05-5.52 11.73-12.17 13.75 1.62-.56 3.79-1.33 5.38-2a55.83 55.83 0 0 0 10.28-6 51.92 51.92 0 0 0 10.1-10.23 50.64 50.64 0 0 0 4.88-8 19.46 19.46 0 0 0 1.77-5.88c2.48-17.41-15.04-41.11-39.14-52.92z"
                                  fill="url(#a6230f12c-51ad-4222-a262-5548eb9c0716)"></path>
                            <path d="M92.39 38.95C90.72 19.22 82.13 5.26 71.22 2A50.91 50.91 0 0 0 47 1a53.21 53.21 0 0 0-9.73 3c-1.33.62-3 1.41-4.43 2.18.31-.15.63-.31.95-.44C48.16-.38 61.48 14 63.5 37.74s-8 48-22.45 54c-6.57 2.77-12.9 1.3-18-3.37 1.32 1.1 3.09 2.56 4.47 3.59a55.88 55.88 0 0 0 10.43 5.73 51.91 51.91 0 0 0 13.93 3.44 50.51 50.51 0 0 0 9.36.08 19.46 19.46 0 0 0 6-1.51c16.11-6.8 27.42-34.01 25.15-60.75z"
                                  fill="url(#b96899fa7-1f88-4c71-ad8a-c0dd973f0219)"></path>
                            <path d="M91.9 33.94A41.9 41.9 0 0 0 87 13a33.43 33.43 0 0 0-3.4-5C68.74-1.49 39.93 4.71 19.23 21.8 4 34.41-2.62 49.42.95 60.22a50.86 50.86 0 0 0 12.93 20.55 53.48 53.48 0 0 0 8 6.3c1.76 1 4.15 2.35 6 3.26a21.53 21.53 0 0 1-2.57-1.39c-13.2-8.39-9-27.51 9.41-42.7s43.98-20.7 57.18-12.3z"
                                  fill="url(#c3f9e6219-5535-44a5-9d18-dbe33f3e4e29)"></path>
                            <path d="M87 13a41.9 41.9 0 0 1 4.9 20.94c6 3.82 8.41 9.87 7.51 16.75.15-1.71.35-4 .41-5.72a55.8 55.8 0 0 0-1.23-11.84 51.91 51.91 0 0 0-5.1-13.41A50.65 50.65 0 0 0 88.22 12a19.49 19.49 0 0 0-4.63-4A33.43 33.43 0 0 1 87 13z"
                                  fill="url(#d72d3e64f-9e63-4ef8-a877-76265baa6fbf)"></path>
                            <path d="M93.48 19.73a52.1 52.1 0 0 1 5.1 13.41A57.11 57.11 0 0 1 99.82 45c-.09 1.72-.22 4-.41 5.72-1.08 8.24-6.9 17.68-16.91 25.95-17.26 14.26-40.89 20-54.64 13.69-1.82-.92-4.22-2.22-6-3.26a53.18 53.18 0 0 1-8-6.3 51.22 51.22 0 0 1-9.14-11.98 50.68 50.68 0 0 1-3.77-8.6 18 18 0 0 0 7.71 9.62C23.5 79.28 52.32 73.08 73 56c18.14-15 24-33.33 15.22-44a51.75 51.75 0 0 1 5.26 7.73z"
                                  fill="url(#e1f9c7941-33a2-4890-ba69-b873959fd9c8)"></path>
                            <path d="M93.27 77.23a52.05 52.05 0 0 1-10.11 10.18 57.16 57.16 0 0 1-10.28 6c-1.6.63-3.74 1.45-5.38 2-8 2.41-18.94 1-30.61-4.71-20.11-9.85-35.07-29-35-44.14.09-2 .28-4.76.51-6.79a53.17 53.17 0 0 1 2.44-9.89A51.18 51.18 0 0 1 12 16.59a50.59 50.59 0 0 1 6.29-7 18 18 0 0 0-5.59 11C10.17 38 27.7 61.71 51.8 73.52c21.11 10.34 40.26 8.14 46.36-4.28a51.73 51.73 0 0 1-4.89 7.99z"
                                  fill="url(#f85118488-5d18-4cb3-9cb5-c73a69faf8dc)"></path>
                            <path d="M51.82 101.17a52.05 52.05 0 0 1-13.93-3.44A57.17 57.17 0 0 1 27.46 92c-1.36-1-3.17-2.46-4.47-3.59-6.15-5.58-10.6-15.73-11.7-28.68C9.4 37.42 18.14 14.74 31.14 7c1.8-1 4.22-2.21 6.08-3.06A53.05 53.05 0 0 1 47 1a51.14 51.14 0 0 1 15-.76A50.5 50.5 0 0 1 71.22 2a18 18 0 0 0-12.3.86C42.71 9.73 31.4 36.95 33.67 63.69c2 23.42 13.73 38.71 27.51 37.55a51.59 51.59 0 0 1-9.36-.07z"
                                  fill="url(#g6f36db62-e771-4696-a98d-0944119347ab)"></path>
                        </g>
                    </g>
                </svg>
            </svg> <!---->
        </g>
        <g transform="translate(67,14.879161834716797)">
            <g fill-rule="" class="tp-name iconsvg-namesvg">
                <g>
                    <path d="M15.84 5.17L15.84 5.17L3.65 5.17L3.65-23.80L7.20-23.80L7.20-12.11L15.84-12.11Q17.77-12.11 19.48-11.43Q21.20-10.75 22.48-9.56Q23.76-8.37 24.50-6.79Q25.24-5.22 25.24-3.46L25.24-3.46Q25.24-1.67 24.50-0.09Q23.76 1.48 22.48 2.65Q21.20 3.82 19.48 4.50Q17.77 5.17 15.84 5.17ZM7.20-8.55L7.20 1.67L15.84 1.67Q17.05 1.67 18.11 1.26Q19.17 0.85 19.98 0.16Q20.79-0.54 21.24-1.46Q21.69-2.38 21.69-3.46L21.69-3.46Q21.69-4.50 21.24-5.42Q20.79-6.34 19.98-7.04Q19.17-7.74 18.11-8.14Q17.05-8.55 15.84-8.55L15.84-8.55L7.20-8.55ZM14.35-8.55L14.35-8.55L4.00-8.55L4.00-12.11L14.35-12.11Q15.57-12.11 16.65-12.51Q17.73-12.91 18.52-13.59Q19.30-14.26 19.78-15.19Q20.25-16.11 20.25-17.19L20.25-17.19Q20.25-18.22 19.78-19.15Q19.30-20.07 18.52-20.77Q17.73-21.46 16.65-21.87Q15.57-22.27 14.35-22.27L14.35-22.27L2.52-22.27L2.52-25.83L14.35-25.83Q16.29-25.83 18.02-25.15Q19.75-24.48 21.02-23.31Q22.27-22.14 23.02-20.56Q23.76-18.99 23.76-17.19L23.76-17.19Q23.76-15.39 23.02-13.81Q22.27-12.24 21.02-11.07Q19.75-9.90 18.02-9.22Q16.29-8.55 14.35-8.55ZM37.94 5.08L37.94 5.08Q35.86 5.08 34.18 4.32Q32.49 3.55 31.30 2.16Q30.11 0.77 29.45-1.21Q28.80-3.19 28.80-5.63L28.80-5.63Q28.80-7.42 29.41-9.20Q30.02-10.98 31.18-12.38Q32.35-13.77 34.00-14.63Q35.64-15.48 37.75-15.48L37.75-15.48Q39.64-15.48 41.27-14.76Q42.88-14.04 44.05-12.76Q45.22-11.47 45.88-9.70Q46.53-7.92 46.53-5.80L46.53-5.80L46.53-3.96L32.58-3.96Q32.71-3.06 33.01-2.11Q33.30-1.17 33.91-0.38Q34.52 0.40 35.50 0.92Q36.49 1.44 37.94 1.44L37.94 1.44Q38.74 1.44 39.53 1.08Q40.32 0.72 40.99 0.22Q41.67-0.27 42.19-0.79Q42.70-1.30 42.93-1.62L42.93-1.62L45.81 0.67Q45.67 0.85 45.02 1.55Q44.37 2.25 43.31 3.04Q42.25 3.82 40.88 4.46Q39.51 5.08 37.94 5.08ZM37.75-11.83L37.75-11.83Q35.77-11.83 34.49-10.57Q33.21-9.31 32.71-7.60L32.71-7.60L42.66-7.60Q42.25-9.31 41.06-10.57Q39.87-11.83 37.75-11.83ZM62.69-15.12L62.69-11.61L57.42-11.61L57.42-4.27Q57.42 1.03 61.11 1.03L61.11 1.03L61.11 4.54Q57.73 4.54 55.80 2.18Q53.86-0.18 53.86-4.27L53.86-4.27L53.86-11.61L48.91-11.61L48.91-15.12L53.86-15.12L53.86-17.41L52.83-17.41L52.83-20.93L57.42-20.93L57.42-15.12L62.69-15.12ZM78.52-15.12L78.52-11.61L73.26-11.61L73.26-4.27Q73.26 1.03 76.95 1.03L76.95 1.03L76.95 4.54Q73.57 4.54 71.64 2.18Q69.70-0.18 69.70-4.27L69.70-4.27L69.70-11.61L64.75-11.61L64.75-15.12L69.70-15.12L69.70-17.41L68.67-17.41L68.67-20.93L73.26-20.93L73.26-15.12L78.52-15.12ZM90.41 5.08L90.41 5.08Q88.33 5.08 86.65 4.32Q84.96 3.55 83.77 2.16Q82.58 0.77 81.92-1.21Q81.27-3.19 81.27-5.63L81.27-5.63Q81.27-7.42 81.88-9.20Q82.48-10.98 83.66-12.38Q84.83-13.77 86.47-14.63Q88.11-15.48 90.22-15.48L90.22-15.48Q92.11-15.48 93.73-14.76Q95.35-14.04 96.53-12.76Q97.69-11.47 98.35-9.70Q99-7.92 99-5.80L99-5.80L99-3.96L85.05-3.96Q85.19-3.06 85.48-2.11Q85.77-1.17 86.38-0.38Q86.98 0.40 87.97 0.92Q88.97 1.44 90.41 1.44L90.41 1.44Q91.22 1.44 92.00 1.08Q92.79 0.72 93.47 0.22Q94.14-0.27 94.66-0.79Q95.17-1.30 95.40-1.62L95.40-1.62L98.28 0.67Q98.14 0.85 97.49 1.55Q96.84 2.25 95.78 3.04Q94.72 3.82 93.35 4.46Q91.98 5.08 90.41 5.08ZM90.22-11.83L90.22-11.83Q88.25-11.83 86.96-10.57Q85.68-9.31 85.19-7.60L85.19-7.60L95.13-7.60Q94.72-9.31 93.53-10.57Q92.34-11.83 90.22-11.83ZM105.84-7.79L105.84 4.59L102.15 4.59L102.15-15.93L105.84-15.93L105.84-14.35Q106.92-15.12 108.25-15.57Q109.58-16.02 111.02-16.02L111.02-16.02L111.02-12.38Q110.03-12.38 109.13-12.01Q108.23-11.65 107.55-11.05Q106.88-10.44 106.43-9.58Q105.98-8.73 105.84-7.79L105.84-7.79Z"
                          transform="translate(-2.52, 25.83)"></path>
                </g> <!----> <!----> <!----> <!----> <!----> <!---->
                <g fill="#0088fa" transform="translate(111.5,0)"></g>
            </g> <!---->
        </g>
    </g>
</svg>
